<?xml version="1.0" standalone="no"?>
<!DOCTYPE svg PUBLIC "-//W3C//DTD SVG 20010904//EN"
 "http://www.w3.org/TR/2001/REC-SVG-20010904/DTD/svg10.dtd">
<svg version="1.0" xmlns="http://www.w3.org/2000/svg"
 width="847.000000pt" height="1280.000000pt" viewBox="0 0 847.000000 1280.000000"
 preserveAspectRatio="xMidYMid meet">
<metadata>
Created by potrace 1.15, written by Peter Selinger 2001-2017
</metadata>
<g transform="translate(0.000000,1280.000000) scale(0.100000,-0.100000)"
fill="#000000" stroke="none">
<path d="M5490 12790 c-272 -24 -556 -69 -915 -146 l-227 -49 5 -40 c2 -22 36
-125 75 -230 38 -104 152 -410 251 -678 l181 -488 -22 -19 c-13 -11 -20 -19
-15 -20 4 0 130 34 280 76 507 140 821 218 1115 274 363 70 762 118 762 92 0
-17 -87 -88 -340 -277 -402 -300 -609 -476 -750 -638 -41 -47 -80 -86 -87 -86
-13 -1 -275 77 -473 141 -353 114 -616 246 -775 391 -33 30 -70 57 -83 61 -14
5 -22 14 -20 24 4 23 84 25 212 7 94 -14 166 -19 166 -12 0 2 -112 306 -250
676 -152 409 -250 686 -250 707 0 29 -3 34 -17 30 -10 -3 -49 -12 -87 -21
l-70 -16 -24 31 c-32 40 -105 77 -192 95 -221 46 -703 45 -1190 -3 -168 -17
-367 -34 -443 -38 l-137 -7 0 -58 c0 -99 -28 -266 -84 -500 -56 -231 -80 -361
-91 -487 l-7 -73 31 -12 c38 -14 39 -27 5 -132 -14 -44 -28 -100 -31 -125 l-5
-45 118 -54 c183 -83 489 -204 944 -374 615 -231 916 -362 1185 -517 175 -100
445 -289 445 -311 0 -13 -118 -117 -224 -196 -322 -241 -667 -409 -1486 -723
-325 -125 -634 -249 -745 -300 -48 -22 -88 -40 -90 -40 -6 0 -118 292 -178
460 -30 85 -139 403 -241 705 -220 650 -218 645 -232 645 -6 0 -54 -22 -106
-48 -154 -79 -318 -194 -544 -383 l-95 -80 -64 26 c-90 36 -160 34 -234 -5
-63 -34 -286 -221 -320 -269 -102 -143 -136 -369 -111 -746 6 -104 15 -257 19
-339 7 -144 8 -150 34 -172 14 -12 52 -32 84 -43 129 -47 120 -39 218 -209
270 -469 386 -620 644 -837 230 -192 270 -241 543 -655 298 -452 348 -558 413
-879 56 -277 75 -492 82 -966 7 -454 -6 -760 -43 -1040 -32 -239 -41 -549 -25
-886 6 -134 18 -444 26 -689 8 -245 20 -501 25 -570 28 -327 87 -592 177 -789
37 -83 120 -221 132 -221 4 0 54 -7 112 -15 608 -85 1001 -78 1203 21 181 88
362 395 519 879 73 225 129 429 331 1210 146 563 138 535 162 535 20 0 23 -7
29 -62 66 -614 271 -1329 583 -2038 87 -196 368 -794 410 -870 79 -145 148
-233 209 -271 112 -70 372 -89 973 -70 535 17 674 32 740 80 63 45 125 142
240 376 145 294 230 497 320 765 144 428 228 826 277 1305 13 126 17 260 17
520 0 380 -2 405 -64 791 -59 363 -66 446 -50 634 16 196 11 262 -41 498 -56
260 -58 319 -20 577 26 177 44 357 76 750 8 92 -1 57 -35 -137 -76 -444 -213
-951 -369 -1366 -91 -243 -249 -576 -381 -802 -296 -507 -507 -724 -805 -826
-74 -26 -92 -28 -245 -28 -153 -1 -171 1 -245 26 -123 42 -234 116 -356 237
-58 58 -128 136 -155 173 -177 241 -391 669 -503 1003 -110 332 -151 609 -151
1022 0 312 18 529 80 993 16 118 43 316 59 440 41 299 83 796 67 780 -10 -11
-67 -202 -111 -375 -152 -591 -252 -1335 -295 -2190 -16 -315 -30 -830 -30
-1094 l0 -233 -36 -69 c-42 -80 -103 -139 -164 -159 -50 -16 -44 -21 -145 131
-74 113 -138 237 -278 546 -57 125 -157 327 -221 448 -127 238 -812 1611 -983
1970 -237 496 -462 1035 -439 1054 21 18 122 53 670 237 301 101 580 200 620
218 39 19 89 39 111 46 119 37 305 120 605 269 184 92 378 183 430 201 79 28
103 41 141 80 l47 48 6 -42 c4 -22 24 -111 46 -198 22 -86 40 -169 41 -185 0
-15 4 -37 8 -47 7 -18 11 -16 35 20 14 21 36 68 47 104 24 79 56 136 169 305
152 227 298 393 445 506 l61 47 64 -30 c131 -60 272 -112 603 -224 465 -157
578 -206 1037 -452 270 -145 490 -256 495 -250 13 12 -108 341 -215 588 -130
298 -147 330 -171 330 -33 0 -83 35 -131 92 -52 63 -193 169 -365 276 -130 80
-436 253 -551 311 -34 17 -60 36 -57 40 2 5 86 66 185 135 98 70 214 154 257
188 84 66 253 227 284 269 18 26 18 29 2 65 -13 31 -18 85 -24 259 -7 234 -7
236 -93 615 -67 294 -70 317 -71 573 l-2 237 -34 36 c-19 19 -57 53 -85 74
-50 39 -51 40 -195 55 -79 8 -286 38 -459 65 -173 28 -369 57 -435 66 -144 18
-509 26 -655 14z m-515 -2163 c20 -48 39 -197 26 -210 -6 -6 -11 2 -15 24 -11
73 -27 165 -33 192 -7 37 5 34 22 -6z m49 -379 c4 -24 11 -90 16 -148 15 -149
35 -217 74 -242 17 -10 43 -21 59 -25 15 -3 27 -7 27 -10 0 -17 -34 -76 -64
-112 -21 -25 -46 -61 -56 -81 l-19 -37 84 -284 c46 -156 82 -285 80 -287 -3
-4 -144 424 -175 534 -11 36 -10 45 9 83 18 35 20 47 11 79 -5 20 -10 55 -10
77 0 22 -11 105 -25 185 -31 180 -42 310 -27 310 6 0 13 -19 16 -42z"/>
<path d="M8300 8631 c0 -16 7 -48 15 -71 8 -24 16 -58 18 -77 1 -18 5 -33 8
-33 14 0 15 39 2 85 -7 28 -16 67 -20 88 -7 44 -23 50 -23 8z"/>
</g>
</svg>
